<?xml version="1.0" encoding="utf-8"?>
<!-- Generator: Adobe Illustrator 16.0.0, SVG Export Plug-In . SVG Version: 6.00 Build 0)  -->
<!DOCTYPE svg PUBLIC "-//W3C//DTD SVG 1.1//EN" "http://www.w3.org/Graphics/SVG/1.1/DTD/svg11.dtd">
<svg version="1.1" xmlns="http://www.w3.org/2000/svg" xmlns:xlink="http://www.w3.org/1999/xlink" x="0px" y="0px" width="2000px"
	 height="1200px" viewBox="0 0 2000 1200" enable-background="new 0 0 2000 1200" xml:space="preserve">
<g id="BACKGROUND">
	<rect fill="#B6D7F6" width="2000" height="1200"/>
</g>
<g id="OBJECT">
	<g>
		<rect x="1311" y="283" fill="none" stroke="#F7F8F9" stroke-width="2" stroke-miterlimit="10" width="232" height="247"/>
		<rect x="1479" y="439" fill="none" stroke="#F7F8F9" stroke-width="2" stroke-miterlimit="10" width="306" height="226"/>
		<circle fill="#D2E7F9" cx="1387.486" cy="345.515" r="38.515"/>
		<polyline fill="none" stroke="#005FD6" stroke-width="2" stroke-miterlimit="10" points="1387,384 1387,346 1421.667,351 		"/>
		<rect x="1349" y="414" fill="none" stroke="#F7F8F9" stroke-width="2" stroke-miterlimit="10" width="103" height="12"/>
		<rect x="1349" y="439" fill="none" stroke="#F7F8F9" stroke-width="2" stroke-miterlimit="10" width="103" height="11"/>
		<polyline fill="none" stroke="#005FD6" stroke-width="2" stroke-miterlimit="10" points="1663,491 1663,606 1761,606 		"/>
		<polyline fill="none" stroke="#F7F8F9" stroke-width="2" stroke-miterlimit="10" points="1678.955,586.35 1699.954,555.583 
			1712,567.86 1734.452,517 1749.451,539.929 1761,510.668 		"/>
		<rect x="1584" y="485" fill="#D2E7F9" width="62" height="37"/>
		<line fill="none" stroke="#F7F8F9" stroke-width="2" stroke-miterlimit="10" x1="1584" y1="522" x2="1646" y2="485"/>
		<line fill="none" stroke="#005FD6" stroke-width="2" stroke-miterlimit="10" x1="1663" y1="621" x2="1761" y2="621"/>
		<line fill="none" stroke="#005FD6" stroke-width="2" stroke-miterlimit="10" x1="1663" y1="639" x2="1712" y2="639"/>
	</g>
	<g>
		<rect x="106" y="390" fill="none" stroke="#F7F8F9" stroke-width="2" stroke-miterlimit="10" width="307" height="27"/>
		<rect x="105" y="489" fill="none" stroke="#F7F8F9" stroke-width="2" stroke-miterlimit="10" width="398" height="27"/>
		<path fill="none" stroke="#F7F8F9" stroke-width="2" stroke-miterlimit="10" d="M343,379c0,6.627-5.373,12-12,12H117
			c-6.627,0-12-5.373-12-12V184c0-6.627,5.373-12,12-12h214c6.627,0,12,5.373,12,12V379z"/>
		<path fill="#D2E7F9" d="M307,295c0,6.627-5.373,12-12,12H145c-6.627,0-12-5.373-12-12v-78c0-6.627,5.373-12,12-12h150
			c6.627,0,12,5.373,12,12V295z"/>
		<path fill="none" stroke="#F7F8F9" stroke-width="2" stroke-miterlimit="10" d="M224,344.5c0,3.59-2.91,6.5-6.5,6.5h-68
			c-3.59,0-6.5-2.91-6.5-6.5l0,0c0-3.59,2.91-6.5,6.5-6.5h68C221.09,338,224,340.91,224,344.5L224,344.5z"/>
		<path fill="#FFFFFF" d="M273,344.5c0,3.59-2.91,6.5-6.5,6.5h-11c-3.59,0-6.5-2.91-6.5-6.5l0,0c0-3.59,2.91-6.5,6.5-6.5h11
			C270.09,338,273,340.91,273,344.5L273,344.5z"/>
		<rect x="143" y="692" fill="none" stroke="#F7F8F9" stroke-width="2" stroke-miterlimit="10" width="370" height="508"/>
		<path fill="none" stroke="#F7F8F9" stroke-width="2" stroke-miterlimit="10" d="M488,929c0,6.627-5.373,12-12,12H195
			c-6.627,0-12-5.373-12-12V738c0-6.627,5.373-12,12-12h281c6.627,0,12,5.373,12,12V929z"/>
		<path fill="none" stroke="#F7F8F9" stroke-width="2" stroke-miterlimit="10" d="M292,1048c0,6.627-5.373,12-12,12h-85
			c-6.627,0-12-5.373-12-12v-59c0-6.627,5.373-12,12-12h85c6.627,0,12,5.373,12,12V1048z"/>
		<circle fill="none" stroke="#F7F8F9" stroke-width="2" stroke-miterlimit="10" cx="216.25" cy="1135.217" r="32.75"/>
		<circle fill="#D2E7F9" cx="307.25" cy="1135.217" r="32.75"/>
		<circle fill="#D2E7F9" cx="393.25" cy="1135.217" r="32.75"/>
		<line fill="none" stroke="#F7F8F9" stroke-width="2" stroke-miterlimit="10" x1="195" y1="977" x2="280" y2="1060"/>
		<rect x="216" y="905" fill="#D2E7F9" width="198" height="14"/>
		
			<line fill="none" stroke="#005FD6" stroke-width="2" stroke-miterlimit="10" x1="202.257" y1="1105.604" x2="216.25" y2="1135.217"/>
		<line fill="none" stroke="#005FD6" stroke-width="2" stroke-miterlimit="10" x1="307" y1="1135" x2="307" y2="1102"/>
		
			<line fill="none" stroke="#005FD6" stroke-width="2" stroke-miterlimit="10" x1="393.25" y1="1135.217" x2="423.414" y2="1147.992"/>
		<polyline fill="none" stroke="#005FD6" stroke-width="2" stroke-miterlimit="10" points="133,256 167,256 179,243 190,272 
			207,249 207,262 233,256 307,256 		"/>
	</g>
	<g>
		<path fill="#021766" d="M722.779,638c0,0,25.721,86.974,76.718,82.993s73.454-66.896,73.454-66.896l15,21.055
			c0,0-30.593,69.562-82.586,75.307s-98.002-58.392-109.031-102.791L722.779,638z"/>
		<ellipse fill="#021766" cx="899.951" cy="642" rx="41" ry="44"/>
		<ellipse fill="#EF75D8" cx="872.951" cy="638" rx="15" ry="16.098"/>
		<g>
			<path fill="#005FD6" d="M724.584,647.973l-29.234,6.735c0,0-16.659,3.327-25.271-20.692
				c-8.612-24.02-63.948-129.682-46.318-153.372c17.631-23.689,73.986-40.53,83.843-4.432
				c9.856,36.098,25.801,143.234,25.801,143.234S735.285,645.507,724.584,647.973z"/>
			<circle fill="#021766" cx="651.613" cy="456.172" r="23.044"/>
			
				<rect x="638.956" y="418.319" transform="matrix(-0.9745 0.2245 -0.2245 -0.9745 1370.2844 706.8252)" fill="#021766" width="12.001" height="26.001"/>
			<path fill="#021766" d="M638.698,369.274l10.618-7.277c0,0,39.012,51.17-5.73,62.795s-36.061-53.604-36.061-53.604l16.546,3.213
				c0,0-1.333,31.923,14.018,30.142C653.439,402.762,638.698,369.274,638.698,369.274z"/>
		</g>
		<path fill="#021766" d="M1161.765,655.875c0,0,26.159,12.367,34.937,61.174c8.777,48.805,16.558,114.341,16.558,114.341
			l31.302-3.692c0,0-11.143-169.863-74.247-193.635L1161.765,655.875z"/>
		<ellipse fill="#021766" cx="1156" cy="642" rx="41" ry="44"/>
		<ellipse fill="#EF75D8" cx="1183" cy="638" rx="15" ry="16.098"/>
		<rect x="941" y="922" fill="#005FD6" width="161" height="48"/>
		<path fill="#021766" d="M1091.354,977.699c0,0,18.032,98.351,14.839,222.301h49.662c0,0,5.447-164.831-20.855-220.718
			L1091.354,977.699z"/>
		<path fill="#021766" d="M1123.791,897.447c0,0,34.209,14.553,32.209,68.553l-32,31L1123.791,897.447z"/>
		<path fill="#005FD6" d="M1068.104,934.963c0,0-9.948,60.019,18.052,62.019S1124,997,1124,997v-70L1068.104,934.963z"/>
		<g>
			
				<ellipse fill="none" stroke="#005FD6" stroke-width="2" stroke-miterlimit="10" cx="1112.037" cy="951.601" rx="21.355" ry="29.381"/>
			<ellipse fill="#021766" cx="1118.607" cy="951.378" rx="21.355" ry="28.335"/>
			<ellipse fill="#EF75D8" cx="1130.927" cy="951.378" rx="13.928" ry="18.479"/>
			<ellipse fill="#021766" cx="1130.927" cy="951.378" rx="7.136" ry="9.468"/>
		</g>
		<path fill="#021766" d="M961.356,977.699c0,0-18.032,98.351-14.839,222.301h-49.662c0,0-5.447-164.831,20.855-220.718
			L961.356,977.699z"/>
		<path fill="#021766" d="M928.92,897.447c0,0-34.209,14.553-32.209,68.553l32,31L928.92,897.447z"/>
		<path fill="#005FD6" d="M984.751,934.963c0,0,10.021,60.019-17.979,62.019S929,997,929,997v-70L984.751,934.963z"/>
		<g>
			
				<ellipse fill="none" stroke="#005FD6" stroke-width="2" stroke-miterlimit="10" cx="940.674" cy="951.601" rx="21.355" ry="29.381"/>
			<ellipse fill="#021766" cx="934.104" cy="951.378" rx="21.355" ry="28.335"/>
			<ellipse fill="#EF75D8" cx="921.784" cy="951.378" rx="13.928" ry="18.479"/>
			<ellipse fill="#021766" cx="921.784" cy="951.378" rx="7.136" ry="9.468"/>
		</g>
		<path fill="#005FD6" d="M1134.517,919.502c0,8.516-6.905,15.498-15.421,15.498H928.904c-8.516,0-15.421-6.982-15.421-15.498
			l8.995-11.604c0-8.516,6.905-15.44,15.422-15.44l173.484-1.293c8.517,0,15.422,6.938,15.422,15.453L1134.517,919.502z"/>
		<rect x="1000" y="512" fill="#021766" width="54" height="94"/>
		<path fill="#EF75D8" d="M959,838.999c0,0,2,82.001,65,82.001c70,0,70-85.443,70-85.443L959,838.999z"/>
		<path fill="#005FD6" d="M1156,810c0,6.627-10,39-34,39H926c-20,0-30-32.373-30-39V611c0-6.627,5.373-12,12-12h236
			c6.627,0,12,5.373,12,12V810z"/>
		<path fill="#005FD6" d="M1172,466.3v27.41c0,18.16-10.75,34.29-24.62,34.29H904.62c-13.87,0-24.62-16.13-24.62-34.29V466.3
			c0-18.16,10.75-33.3,24.62-33.3h242.76C1161.25,433,1172,448.14,1172,466.3z"/>
		<path fill="#005FD6" d="M1213,827h30c0,0,16.98,0.332,19.979,25.672s33.199,140.646,10.7,159.772s-81.197,22.843-82.697-14.547
			S1198,852.672,1198,852.672S1202.019,827,1213,827z"/>
		<circle fill="#021766" cx="1241.044" cy="1029.955" r="23.044"/>
		<rect x="1236" y="1043" fill="#021766" width="12" height="26"/>
		<path fill="#021766" d="M1234.119,1117.534l-11.981,4.707c0,0-26.526-58.622,19.684-59.905
			c46.21-1.282,23.104,60.333,23.104,60.333l-15.402-6.846c0,0,8.467-30.809-6.893-32.52
			C1227.272,1081.592,1234.119,1117.534,1234.119,1117.534z"/>
		<path fill="#1CE9E0" d="M1140,467.741c0,6.218-5.041,11.259-11.259,11.259H926.259c-6.218,0-11.259-5.041-11.259-11.259v-0.482
			c0-6.218,5.041-11.259,11.259-11.259h202.482c6.218,0,11.259,5.041,11.259,11.259V467.741z"/>
		<circle fill="#FFFFFF" cx="1102.741" cy="468.259" r="12.259"/>
		<path fill="#EF75D8" d="M1104,507v21H942v-21c0-6.63,5.37-12,12-12h138C1098.63,495,1104,500.37,1104,507z"/>
		<circle fill="#EF75D8" cx="1026.029" cy="704.865" r="83.458"/>
		<circle fill="none" stroke="#F7F8F9" stroke-width="2" stroke-miterlimit="10" cx="1026.029" cy="704.865" r="90.374"/>
		<circle fill="#FFFFFF" cx="1026.029" cy="704.865" r="65.457"/>
		<circle fill="#1CE9E0" cx="984.029" cy="677.864" r="15.96"/>
		<path fill="none" stroke="#005FD6" stroke-width="2" stroke-miterlimit="10" d="M1061.451,747.53
			c-4.885,4.061-10.479,7.298-16.568,9.499"/>
		<path fill="none" stroke="#005FD6" stroke-width="2" stroke-miterlimit="10" d="M1062.982,663.518
			c11.354,10.154,18.5,24.917,18.5,41.348c0,13.234-4.637,25.386-12.373,34.918"/>
		<path fill="#FFFFFF" d="M1024,816.736c0,3.459-2.804,6.264-6.263,6.264h-77.475c-3.459,0-6.263-2.805-6.263-6.264v-0.473
			c0-3.459,2.804-6.264,6.263-6.264h77.475c3.459,0,6.263,2.805,6.263,6.264V816.736z"/>
		<circle fill="#FFFFFF" cx="1046.744" cy="817.256" r="7.256"/>
		<circle fill="#FFFFFF" cx="1066.744" cy="817.256" r="7.256"/>
		<g>
			<circle fill="#021766" cx="1194.25" cy="465.047" r="19.25"/>
			<path fill="#EF75D8" d="M1193,505c0,6.627-5.373,12-12,12h-1c-6.627,0-12-5.373-12-12v-47c0-6.627,5.373-12,12-12h1
				c6.627,0,12,5.373,12,12V505z"/>
			<path fill="#EF75D8" d="M1192,472c0,3.313-2.687,6-6,6l0,0c-3.313,0-6-2.687-6-6V344c0-3.313,2.687-6,6-6l0,0
				c3.313,0,6,2.687,6,6V472z"/>
		</g>
		<g>
			<circle fill="#021766" cx="858.25" cy="465.047" r="19.25"/>
			<path fill="#EF75D8" d="M884,458c0-6.627-5.373-12-12-12h-1c-6.627,0-12,5.373-12,12v47c0,6.627,5.373,12,12,12h1
				c6.627,0,12-5.373,12-12V458z"/>
			<path fill="#EF75D8" d="M872,420c0-3.313-2.687-6-6-6l0,0c-3.313,0-6,2.687-6,6v52c0,3.313,2.687,6,6,6l0,0c3.313,0,6-2.687,6-6
				V420z"/>
		</g>
		<circle fill="#1CE9E0" cx="1185.479" cy="332.521" r="11.479"/>
		<path fill="none" stroke="#F7F8F9" stroke-width="2" stroke-miterlimit="10" d="M1141.574,811.002
			c-3.076,10.088-8.565,22.508-17.783,27.997"/>
		<line fill="none" stroke="#F7F8F9" stroke-width="2" stroke-miterlimit="10" x1="1145" y1="616" x2="1145" y2="796"/>
		<line fill="none" stroke="#F7F8F9" stroke-width="2" stroke-miterlimit="10" x1="924" y1="450" x2="1125" y2="450"/>
		<polyline fill="none" stroke="#005FD6" stroke-width="2" stroke-miterlimit="10" points="954,495 954,512 1093,512 1093,495 		"/>
		<path fill="none" stroke="#005FD6" stroke-width="2" stroke-miterlimit="10" d="M1228.03,1119.926
			c0,0-10.252-48.002,14.601-46.259s16.123,46.259,16.123,46.259"/>
		<path fill="none" stroke="#005FD6" stroke-width="2" stroke-miterlimit="10" d="M615.958,372.825c0,0-2.959,50.173,26.374,41.175
			s2.624-49.015,2.624-49.015"/>
		<path fill="none" stroke="#005FD6" stroke-width="2" stroke-miterlimit="10" d="M1066.744,528c0,0,9.388,23.666,5.488,31
			s-25.488,3.334-25.488,3.334"/>
		<path fill="none" stroke="#005FD6" stroke-width="2" stroke-miterlimit="10" d="M1046.744,550.747
			c0,0,20.256,25.584,31.589,16.919S1074,528,1074,528"/>
		<path fill="none" stroke="#005FD6" stroke-width="2" stroke-miterlimit="10" d="M1236,777.668c0,0,36.335,2.001,37.001,33.334
			s-18.501,34-18.501,34"/>
		<path fill="none" stroke="#005FD6" stroke-width="2" stroke-miterlimit="10" d="M1232.334,767c0,0,49.234,1.998,49.617,43
			s-18.972,42.672-18.972,42.672"/>
		<path fill="none" stroke="#F7F8F9" stroke-width="2" stroke-miterlimit="10" d="M1232.334,752.506c0,0,30.843,8.492,31.755,43.494
			s-9.58,42.999-9.58,42.999"/>
		<path fill="none" stroke="#F7F8F9" stroke-width="2" stroke-miterlimit="10" d="M1232.262,827c0,0,13.192,74.667,12.299,100H1257
			c0,0,4.018,47.852-2.491,84.259"/>
		<path fill="none" stroke="#F7F8F9" stroke-width="2" stroke-miterlimit="10" d="M662.334,478c0,0,29.745,140.985,55.334,173.001"
			/>
		<path fill="none" stroke="#F7F8F9" stroke-width="2" stroke-miterlimit="10" d="M1223.971,902.229
			c0.135,2.482-1.768,4.604-4.25,4.738l0,0c-2.481,0.135-4.603-1.768-4.737-4.249l-1.954-35.947
			c-0.135-2.481,1.768-4.603,4.25-4.737l0,0c2.481-0.135,4.603,1.768,4.737,4.249L1223.971,902.229z"/>
		<path fill="none" stroke="#F7F8F9" stroke-width="2" stroke-miterlimit="10" d="M962.378,862.151c0,0,15.622,1.395,37.622,2.411
			V855h47l-0.26,10.34c16.549-0.359,32.346-1.581,43.941-4.317"/>
		<path fill="none" stroke="#F7F8F9" stroke-width="2" stroke-miterlimit="10" d="M968.134,880.619c0,0,9.866,0.927,31.866,1.943
			V873h47l-0.26,10.34c16.549-0.359,26.063-0.313,37.659-3.05"/>
		<path fill="none" stroke="#F7F8F9" stroke-width="2" stroke-miterlimit="10" d="M979.004,900.391
			c5.863,0.384,13.009,0.803,20.996,1.172V892h47l-0.26,10.34c8.591-0.187,16.979-0.605,24.681-1.349"/>
		<line fill="none" stroke="#F7F8F9" stroke-width="2" stroke-miterlimit="10" x1="968" y1="933" x2="1077" y2="933"/>
		<path fill="none" stroke="#F7F8F9" stroke-width="2" stroke-miterlimit="10" d="M903.502,1036.311c0,0,32.25,12.644,49.874,0"/>
		<path fill="none" stroke="#F7F8F9" stroke-width="2" stroke-miterlimit="10" d="M902.201,1046.396c0,0,30.283,10.017,49.874,2.644
			"/>
		<path fill="none" stroke="#F7F8F9" stroke-width="2" stroke-miterlimit="10" d="M1104.964,1107.669c0,0,35.407,8.54,50.055-3.397"
			/>
		<path fill="none" stroke="#F7F8F9" stroke-width="2" stroke-miterlimit="10" d="M1104.964,1115c0,0,33.407,9.922,50.055-4.372"/>
	</g>
	<g>
		<g>
			<path fill="#E8C59C" d="M1296.5,658c0,0-9.5-13-10.5-16s-5.998-15.5-5.999-21s-5.001-11.5-6.001-5s-2.5,14.5-2.5,14.5
				S1262,621,1261,617s-4-14.5-4.5-17s-4.5,2-4,5.5s-6-2.5-5,5s-4,6.5-3,10.5s-3.266,13.5-0.133,20s8.135,21.838,36.634,43.669
				L1296.5,658z"/>
			<path fill="#E8C59C" d="M1416.166,1042c0,0-0.832,107.284,11.501,158H1479c0,0-7-115,0-158H1416.166z"/>
			<path fill="#E8C59C" d="M1509.166,1042c0,0-0.832,107.284,11.501,158H1572c0,0-7-115,0-158H1509.166z"/>
			<path fill="#EAF7FF" d="M1452,567.666c0,0-26.665,6-37.332,32.334s-49.001,115.993-49.001,115.993l-59.666-58.325l-26,42
				c0,0,78.001,88.667,94.667,88s42.832-52.417,42.832-52.417L1452,567.666z"/>
			<path fill="#021766" d="M1502.426,462.109c0,0-14.354-4.456-24.749,10.889c-10.396,15.345-6.931,42.074-11.386,52.964
				c-4.454,10.889-8.414,12.374-8.414,12.374s18.569,18.81,50.121,14.354c0,0,39.471,9.899,56.795-6.93
				c0,0-14.667-13.364-14.016-28.214S1553.408,457.16,1502.426,462.109z"/>
			<path fill="#B6D7F6" d="M1452,567.666c-10.886,3.358-14,10.667-16,26.667s-17.334,63.999-6.667,69.999
				s17.999,22.668,15.333,39.334s-5.869,135.333-5.869,135.333l112.162,9.447l13.499-280.78
				C1564.458,567.666,1498.533,553.312,1452,567.666z"/>
			<path fill="#E8C59C" d="M1493.021,488.343c0,0-9.898,37.123-6.435,44.054c3.465,6.93,15.875,9.898,12.64,17.818
				s-6.421,14.439-6.421,14.439s7.641,15.261,12.591,13.28c4.95-1.979,16.829-13.646,16.829-13.646l1.979-31.061
				c0,0,5.94-1.822,5.94-6.771s-8.415-5.939-8.415-5.939s15.839-29.699-4.455-37.124S1493.021,488.343,1493.021,488.343z"/>
			<path fill="#021766" d="M1488.422,478.814c0,0,2.578,33.287,41.578,32.792V478.69L1488.422,478.814z"/>
			<path fill="#005FD6" d="M1492.812,564.84c0,0,7.879,8.613,9.364,12.463l-2.951,9.047c0,0-11.425-9.48-13.375-22.062
				C1485.851,564.288,1490.131,559.665,1492.812,564.84z"/>
			<path fill="#005FD6" d="M1521.977,564.288l-16.83,13.646l4.455,8.415c0,0,14.797-12.848,17.051-20.902
				C1526.652,565.447,1524.327,561.16,1521.977,564.288z"/>
			<path fill="#021766" d="M1438.797,811c0,0-31.797,190-36.797,235c0,0,93.025,31.167,219,24.001L1596,811H1438.797z"/>
			<path fill="#EAF7FF" d="M1536.668,563.349c0,0-30.667,246.318-33.334,300.985s14.667,230,20.667,244
				c0,0,75.998-19.999,96.999-22.666s42.334-12,42.334-12S1626.666,931.001,1621,891.001s-18.331-188-19.665-214.667
				s0.666-94-13.334-105.333S1536.668,563.349,1536.668,563.349z"/>
			<path fill="#EAF7FF" d="M1472.667,562.778c0,0-20.001,264.891-22.667,293.558s-24.407,230-24.407,230l-54.926-18
				c0,0,20-178.666,26.667-222.666s24.517-185.333,28.259-212S1428.545,557.07,1472.667,562.778z"/>
			<path fill="#EF75D8" d="M1410.001,647.67c0,0,99.928,2,101.964,0s5.518,146.667,5.518,146.667l-115.815-4.667L1410.001,647.67z"
				/>
			<path fill="#E8C59C" d="M1443.768,737.484l-12.268-2.233c0,0-11.5-1.249-14,0s0,4.249,0,4.249s-9-0.607-11-4.804
				s-7,9.804-4.5,13.304s4.5,13.5,9.5,15.5s35.5,3.5,35.5,3.5L1443.768,737.484z"/>
			<polygon fill="#005FD6" points="1461.168,739.834 1443.917,735.251 1441.335,774 1451,774 			"/>
			<path fill="#EAF7FF" d="M1579.284,566.483c0,0,26.718,0.52,26.718,56.52s-10.279,131.999-22.807,148.666s-113.86,12-133.86,10
				l5.333-52c0,0,68.668-2.666,85.334-5.333L1579.284,566.483z"/>
			<polygon fill="#005FD6" points="1302.56,663.228 1296.5,658 1278,687 1283.113,694.641 			"/>
		</g>
		<path fill="none" stroke="#005FD6" stroke-width="2" stroke-miterlimit="10" d="M1447,567.86c0,0-15.996,11.14-16.498,30.14
			s-6.04,43.973-6.04,43.973"/>
		<polyline fill="none" stroke="#005FD6" stroke-width="2" stroke-miterlimit="10" points="1517.482,726.445 1540.002,724.336 
			1567.783,612.697 		"/>
		<path fill="none" stroke="#005FD6" stroke-width="2" stroke-miterlimit="10" d="M1517.482,783.698c0,0,53.908-1.36,65.713-12.029
			s17.109-66.805,17.109-66.805"/>
		<line fill="none" stroke="#005FD6" stroke-width="2" stroke-miterlimit="10" x1="1505.146" y1="577.935" x2="1502.177" y2="617"/>
		<path fill="none" stroke="#005FD6" stroke-width="2" stroke-miterlimit="10" d="M1495.025,514.5c0,0-4.498,9-1.012,10
			s3.486,1,3.486,1"/>
		<path fill="none" stroke="#F7F8F9" stroke-width="2" stroke-miterlimit="10" d="M1488.422,471c0,0-2.028,11.887,3.822,20.358"/>
		<path fill="none" stroke="#005FD6" stroke-width="2" stroke-miterlimit="10" d="M1271.5,630.5c0,0-3.303,7-1.651,14"/>
		<path fill="none" stroke="#005FD6" stroke-width="2" stroke-miterlimit="10" d="M1252.5,605.5c0,0,2,13.5,6,20"/>
		<path fill="none" stroke="#005FD6" stroke-width="2" stroke-miterlimit="10" d="M1247.023,615.5c0,0,4.977,16.625,8.477,18.562"/>
		<path fill="none" stroke="#005FD6" stroke-width="2" stroke-miterlimit="10" d="M1244.561,630.5c0,0,2.939,8.945,7.939,11.473"/>
		<path fill="none" stroke="#005FD6" stroke-width="2" stroke-miterlimit="10" d="M1527.668,916.333l59.333-8.667
			c0,0,16.231,75.334-19.218,79.334S1527.668,916.333,1527.668,916.333z"/>
		<path fill="none" stroke="#005FD6" stroke-width="2" stroke-miterlimit="10" d="M1385.668,907.666l19.333,5.416
			c0,0-10.31,67.316-28.988,64.617L1385.668,907.666z"/>
	</g>
	<g>
		<g>
			<path fill="#021766" d="M457,935l-24,265h122l10-146c0,0,9,11,14,26s32.93,120,32.93,120H718l-43-265H457z"/>
			<path fill="#EAF7FF" d="M670,546c0,0,29.335,17,46.001,70.333S780.002,815,745.335,835.666s-68.233,10.059-68.233,10.059L670,546
				z"/>
			<path fill="#EAF7FF" d="M392.434,605.848c-13.766,9.818-21.766,42.486-27.099,87.152s-36.667,131.332-14.667,168.666
				s89.881-13.051,89.881-13.051L392.434,605.848z"/>
			<path fill="#EAF7FF" d="M396,600c-16.104,17.254,5,76,16,114s45,221,45,221s134,28,218,0c0,0,5-183,9-218s15-145-14-171
				S410,585,396,600z"/>
			<path fill="#FFDFB2" d="M502.667,516.335c0,0-8,1.334-4,10s8.666,9.188,12,13.594s-3.924,22.753-3.924,22.753l36.591,43.653
				l12.667,41.333l12-47.668l-10.927-48.939c0,0-7.074-2.204-6.407-11.132c0,0,17.334-1.594,13.334-23.594
				S554,445.667,514.667,455.001S498.667,512.335,502.667,516.335z"/>
			<path fill="#1CE9E0" d="M502.667,516.335c0,0,5.833,7.665,7.833,5.665s-7.666-17-7.833-24.5s42.083-6.189,44.958-31.595
				l6.379,11.03c0,0,6.996-19.936-11.004-27.436c0,0-26.5-23-54,0s-18.879,56.666,8.561,72.833L502.667,516.335z"/>
			<path fill="#E8C59C" d="M514.5,794.507c0,0,43.916,12.64,77.25,28.241S681,838.999,681,838.999V757c0,0-73.426,1.714-91.5-4
				S514.5,794.507,514.5,794.507z"/>
			<path fill="#005FD6" d="M506.743,562.682c0,0-4.657-3.35-7.7,1.984S525.66,613.5,530.08,627l13.254-20.665L506.743,562.682z"/>
			<path fill="#005FD6" d="M557.074,551.061L568.001,600l21.499,10.5l-23.93-61.143C565.57,549.357,563.148,542.621,557.074,551.061
				z"/>
			<path fill="#FFDFB2" d="M414.002,776.333c0,0,40.288-25.425,71.333-32.646c65.998-15.354,108.76,4.382,126.595,12.382
				c0,0-45.263,14.266-68.596,27.599s-102.785,64.95-102.785,64.95L414.002,776.333z"/>
			<path fill="#005FD6" d="M424.694,770.032c0,0-3.44,0.017-10.776,0.106c-7.334,0.088-9.293,5.476-9.293,5.476
				s-9.836-3.307-12.908,0.026c-3.07,3.333,10.273,88.227,26.273,99.787c0,0,11.641-2.783,18.504-7.102
				c6.865-4.318,26.506-6.659,26.506-6.659V843v-11l-9.666,5.667L424.694,770.032z"/>
			<path fill="#005FD6" d="M670,757.171c0,0,4.665,68.276,0,81.386l-11.999-0.891c0,0,4.872,22.05,11.999,24.666s11-4,11-4
				s14.335,11.334,25.668,9.334s27.333-4,27.333-4l6.667-6c0,0-14.667-68.323-48-100.495
				C692.668,757.171,687.332,746.676,670,757.171z"/>
		</g>
		<line fill="none" stroke="#005FD6" stroke-width="2" stroke-miterlimit="10" x1="393.355" y1="610.5" x2="423.414" y2="763.342"/>
		<path fill="none" stroke="#005FD6" stroke-width="2" stroke-miterlimit="10" d="M686.062,584.58c0,0,3.766,33.069,3.34,51.42
			s-7.44,109-7.44,109"/>
		<line fill="none" stroke="#005FD6" stroke-width="2" stroke-miterlimit="10" x1="556.001" y1="647.668" x2="568.001" y2="737"/>
		<line fill="none" stroke="#005FD6" stroke-width="2" stroke-miterlimit="10" x1="573.287" y1="814.771" x2="589.5" y2="950.504"/>
		<path fill="none" stroke="#005FD6" stroke-width="2" stroke-miterlimit="10" d="M550.335,503.001c0,0,9.348,12.665,5.007,13.999
			s-4.341,1.334-4.341,1.334"/>
		<circle fill="none" stroke="#005FD6" stroke-width="2" stroke-miterlimit="10" cx="536.707" cy="505.627" r="6.627"/>
		<circle fill="none" stroke="#005FD6" stroke-width="2" stroke-miterlimit="10" cx="559.664" cy="496.75" r="6.25"/>
		<path fill="none" stroke="#005FD6" stroke-width="2" stroke-miterlimit="10" d="M543.334,505.627c0,0-1.908-11.356,10.079-8.877"
			/>
	</g>
</g>
<g id="TEXT">
	
		<text transform="matrix(1 0 0 1 751 101.7441)" fill="#FFFFFF" font-family="'Rubik-Light'" font-size="25.0732" letter-spacing="50">FUTURISM</text>
</g>
</svg>
